<?xml version="1.0" encoding="utf-8"?>
<!-- Generator: Adobe Illustrator 23.0.0, SVG Export Plug-In . SVG Version: 6.00 Build 0)  -->
<svg version="1.1" id="Слой_1" xmlns="http://www.w3.org/2000/svg" xmlns:xlink="http://www.w3.org/1999/xlink" x="0px" y="0px"
	 viewBox="0 0 17.6 24.5" style="enable-background:new 0 0 17.6 24.5;" xml:space="preserve">
<style type="text/css">
	.st0{fill:none;stroke:#FAA73C;stroke-width:1.5;stroke-miterlimit:10;}
</style>
<path class="st0" d="M5.8,1.5c0.8,0.2,2.1,0.5,2,2.4c-0.1,2-0.1,1.8,0,2.3s0.1,1.7-1,2.4C5.6,9.3,5.4,9.4,5.4,9.4s0.4,2.1,1.5,3.8
	s2.7,3.3,2.7,3.3s1.2-0.7,1.6-0.9c0.4-0.2,1.2-0.5,2.2,0.2c1,0.7,1.6,0.9,2,1.2s1.8,1,1.4,2.5s-0.5,1.8-0.7,2.6
	c-0.2,0.8-0.9,2.1-2.8,1.6s-7-3.2-10.1-8.8S0.6,3.9,1,2.6s1.4-2,2.1-1.8S5.8,1.5,5.8,1.5z"/>
</svg>
